# xmcd CD database file
#
# Track frame offsets:
#	150
#	13353
#	27257
#	43199
#	55703
#	68433
#	81574
#	95548
#	107692
#	123891
#	136081
#	152620
#	165088
#	177959
#	238660
#	253254
#	268210
#	280748
#	294488
#	306889
#
# Disc length: 4296 seconds
#
# Revision: 2
# Processed by: cddbd v1.5.2PL0 Copyright (c) Steve Scherf et al.
# Submitted via: CDex 1.51
#
DISCID=1310c614
DTITLE=Charlie Parker - Jazz Masters
DYEAR=1900
DGENRE=Jazz
TTITLE0=Ballade
TTITLE1=My Little Suêde Shoes
TTITLE2=Temptation
TTITLE3=All The Things You Are
TTITLE4=Bluebird
TTITLE5=20th Century Blues
TTITLE6=Dark Shadows
TTITLE7=La Paloma
TTITLE8=Star Eyes
TTITLE9=Un Poquito De Tu Amor
TTITLE10=East Of The Sun (West Of The Moon)
TTITLE11=Bongo Bop
TTITLE12=Fiesta
TTITLE13=Funky Blues
TTITLE14=Slim's Jam
TTITLE15=They Can't Take That Away From Me
TTITLE16=Summertime
TTITLE17=Paker's Mood
TTITLE18=Estrellita
TTITLE19=K.C. Blues
EXTD=
EXTT0=
EXTT1=
EXTT2=
EXTT3=
EXTT4=
EXTT5=
EXTT6=
EXTT7=
EXTT8=
EXTT9=
EXTT10=
EXTT11=
EXTT12=
EXTT13=
EXTT14=
EXTT15=
EXTT16=
EXTT17=
EXTT18=
EXTT19=
PLAYORDER=
